<?xml version="1.0" encoding="utf-8"?>
<!-- Generator: Adobe Illustrator 17.0.0, SVG Export Plug-In . SVG Version: 6.00 Build 0)  -->
<svg version="1.2" baseProfile="tiny" xmlns="http://www.w3.org/2000/svg" xmlns:xlink="http://www.w3.org/1999/xlink" x="0px"
	 y="0px" width="283.187px" height="221.804px" viewBox="60 27 283.187 221.804" xml:space="preserve">
<g id="Background">
</g>
<g id="_United_Arab_Emirates">
	<path fill="#878787" d="M137.124,87.772l0.323,0.237l-0.112-1.033l-0.646-0.609l0.068,1.206L137.124,87.772z M261.822,98.694
		l-0.036,0.02h0.019L261.822,98.694z M269.497,84.165l0.175,0.397l0.074,0.106l0.074,0.074h0.037v-0.037l-0.037-0.018l-0.056-0.094
		l-0.125-0.211l-0.111-0.217l-0.104-0.323l-0.037-0.169l0.471,1.033l-0.471-1.063l0.721-2.381l-0.021,0.03l0.021-0.107l0.037-0.105
		l0.074-0.199l0.031-0.075l0.094-0.038l0.055-0.037V80.7h-0.038l-0.054,0.031l-0.039,0.019l-0.049,0.056l-0.074,0.105l-0.058,0.18
		l-0.036,0.18l-0.03,0.131l-0.093,0.125l-0.02,0.036l-0.088,0.124l-0.074,0.126l-0.019,0.13l-0.037,0.162l-0.069,0.18l-0.093,0.198
		l-0.05,0.268l-0.018,0.169l-0.036,0.193l-0.056,0.274l-0.039,0.217l0.039,0.237L269.497,84.165z M269.46,83.132l0.037-0.2
		l0.013-0.161l0.037-0.249l0.093-0.218l0.051-0.131l-0.286,1.231L269.46,83.132z M268.519,90.117l0.039,0.131l0.087,0.123
		l0.055,0.087h0.038v-0.03l0.013,0.03V90.39l0.018-0.075l-0.018-0.031l-0.031-0.036v-0.057l-0.092-0.702l0.539-0.922l0.436-0.235
		l0.056-0.038v-0.018l0.285-0.162l0.523,0.036l0.019,0.021l0.142,0.036l0.095,0.069l0.017,0.018l0.069-0.087v-0.018h0.038
		l-0.038-0.018l-0.05-0.039l-0.198-0.087l-0.114-0.036l-0.123-0.018l-0.143-0.021h-0.236l-0.16,0.021l-0.125,0.037l-0.235,0.105
		l-0.144,0.093l-0.148,0.144l-0.126,0.105l-0.105,0.113l-0.181,0.249l-0.092,0.148l-0.088,0.192l-0.057,0.217l-0.019,0.218
		l0.019,0.324L268.519,90.117z M270.02,90.658l-0.021-0.031l-0.056-0.038l-0.036,0.019l-0.106,0.019l-0.815-0.129h-0.051
		l-0.036-0.021l-0.057-0.03l-0.019,0.105v0.02l0.111,0.087l0.107,0.056l0.088,0.056l0.148,0.019l0.18,0.02h0.212l0.199-0.02
		l0.198-0.056l0.056-0.037l0.02-0.018v-0.069l-0.02-0.019h-0.018v0.019h0.018v0.05H270.02z M270.107,90.696h-0.057l0.057-0.018
		V90.696z M273.161,83.623l0.001-0.004l0.017,0.023l0.069,0.143v-0.503l0.124-0.149l0.057-0.018l0.037-0.069l0.254-0.311
		l-0.055-0.031l-0.038-0.018l-0.105-0.057l-0.02,0.019l-0.019-0.037l-0.037,0.018l-0.037,0.075v0.049h0.037l0.02-0.018l0.018-0.012
		l-0.162,0.36l-0.019,0.021l-0.142,0.123l-0.02,0.087v0.093l-0.018,0.069l-0.038,0.093v0.087l0.02,0.113l0.036,0.054l0.037,0.02
		l0.032-0.02l0.018-0.037l-0.05-0.075v-0.068L273.161,83.623z M273.228,83.282l0.037-0.075l-0.037,0.105V83.282z M273.864,82.05
		l-0.057,0.019v0.018l0.019,0.019l0.057-0.019l0.03-0.055v-0.031l0.057-0.02h-0.057l-0.03-0.018h-0.13l-0.021-0.038h-0.03
		l-0.021,0.019l-0.16-0.019l-0.02-0.019l-0.036-0.018h-0.02l-0.037,0.018l-0.037-0.018v-0.057h-0.051l-0.036,0.038l-0.074,0.019
		l-0.019,0.037h0.073l-0.018,0.056l-0.02,0.02h0.057l0.057-0.02l0.124,0.031l0.056,0.02l0.018,0.055l-0.018,0.038h-0.075v0.162
		l-0.056,0.075v0.013h0.056l0.02,0.018h0.036l0.02-0.031v-0.019l0.05-0.038v-0.218l0.037,0.019h0.057l0.067-0.038l0.057-0.037
		l0.094-0.031v0.031L273.864,82.05z M273.141,81.726l-0.036,0.019l-0.038,0.038l-0.019,0.031l0.019,0.075l0.019,0.018h0.056
		l0.02-0.037l-0.02-0.038l-0.036-0.049l0.036-0.019h0.051l-0.014,0.125l0.182-0.219v0.018l0.049,0.126l0.18-0.031h0.038l0.105,0.049
		l0.075,0.057l0.019,0.018l0.02-0.037v-0.02l-0.02-0.049l-0.037-0.056l-0.069-0.057l-0.074-0.036h-0.093l-0.069-0.049l-0.018,0.019
		l-0.02-0.019h-0.218l-0.067,0.031l-0.037,0.036h0.037l0.031-0.018v0.057L273.141,81.726z M271.711,85.135l0.111-0.069h0.038
		l0.019-0.054l0.049-0.088l0.021-0.056v-0.093l0.035-0.069l-0.035,0.037v-0.037h-0.058v0.125l-0.143,0.256l-0.357,0.019
		l-0.003-0.001l-0.379,0.018h-0.019l-0.162,0.012l0.12-0.006l-0.045,0.006h-0.075l-0.789-0.56l0.589,0.491l-0.03-0.018l-0.273-0.111
		l-0.074-0.013l-0.049-0.056l-0.114-0.18l-0.048-0.113l-0.019-0.031l-0.021,0.018l0.021,0.031l0.049,0.112l0.093,0.18l0.088,0.069
		l0.074,0.018l0.256,0.113l0.104,0.048l0.125,0.037h0.131l0.087-0.018l0.36-0.019l0.181,0.019L271.711,85.135z M271.462,85.122
		l0.198-0.018l-0.111,0.018H271.462z M272.108,84.955l0.095-0.019h0.019l0.124-0.069l0.143-0.075l0.163-0.105l0.11-0.038
		l0.107-0.037l0.111-0.087l0.049-0.057l0.057-0.019l0.02-0.038l-0.02-0.031h-0.037l-0.037,0.031l-0.018,0.038l-0.051,0.057
		l-0.094,0.067l-0.035,0.019l-0.088,0.02l-0.074,0.037l-0.181,0.126l-0.143,0.074h-0.086l-0.056,0.019l-0.145,0.069l0.019,0.019
		H272.108z M271.337,89.631h0.05l0.038-0.019l0.018-0.018h0.037v-0.038l-0.037-0.013l-0.057-0.037l-0.068,0.018h-0.056v0.031
		l-0.019,0.075l-0.074,0.056l-0.051,0.087l-0.055,0.075l-0.018,0.036h0.055l0.038-0.018v-0.037l0.013-0.039h0.037v0.039h0.017
		l0.02-0.057l0.018-0.038l0.019-0.031l0.037,0.021v-0.039l-0.02-0.018l0.057-0.018V89.631z M270.542,90.516l-0.039,0.036
		l-0.074,0.057l-0.086,0.124l-0.076,0.076l-0.036,0.018v0.05l0.036,0.038l0.039,0.018l0.018,0.056v0.019h0.02v-0.038l0.037,0.038
		l0.143-0.36l0.019-0.038l0.019-0.037v-0.02l0.019-0.054l-0.019,0.018v-0.018L270.542,90.516z M271.499,82.125l-0.037,0.049
		l-0.019,0.056l0.019,0.038l0.037,0.074h0.05l0.019-0.02V82.23l0.02-0.056l0.018-0.031l0.056-0.018l0.02-0.038V82.05l-0.02-0.018
		l-0.056-0.02h-0.056l-0.018,0.038v0.019l-0.02,0.038L271.499,82.125z M271.587,81.745l-0.038,0.069l-0.037,0.111l0.02,0.038h0.073
		l0.037-0.038l0.018-0.056l0.02-0.038l0.049-0.031v-0.075h-0.124L271.587,81.745z M273.372,82.106l-0.012-0.038h-0.019l-0.021,0.018
		h-0.019V82.05h-0.037l-0.018,0.037v0.105l-0.037,0.056v0.057h0.074l0.057,0.018l0.019-0.037l-0.019-0.018v-0.02l-0.021-0.018
		l0.039-0.087L273.372,82.106z M270.847,82.361l-0.07-0.019l-0.072-0.038l-0.021-0.019l-0.036,0.037l-0.02,0.02l0.039,0.031
		l0.093,0.075l0.031,0.018l0.037-0.018l0.036-0.02l0.039-0.018l-0.018-0.019L270.847,82.361z M270.561,82.192h-0.058l-0.018,0.056
		l-0.039,0.02h-0.087l-0.036,0.037l0.02,0.018l0.055,0.02l0.031-0.038l0.057-0.019h0.038l0.037,0.037l0.036,0.02l0.014-0.038
		l0.037-0.057l-0.02-0.037L270.561,82.192z M273.539,82.989l-0.038,0.056l-0.036,0.057l-0.02,0.03l0.02,0.037h0.036l0.051-0.067
		l0.036-0.095l0.093-0.055v-0.051l-0.017-0.036l-0.057,0.036L273.539,82.989z M272.525,83.294l0.057,0.037l0.051,0.039l0.075-0.02
		l0.018-0.037l-0.036-0.019h-0.057l-0.051-0.031v-0.094h-0.057l-0.055,0.074v0.039l0.018,0.012H272.525z M272.744,82.343v-0.056
		l-0.036-0.038l-0.075-0.037l-0.031-0.02l-0.02-0.018l-0.018-0.049l-0.019-0.019h-0.02l-0.017,0.019l0.017,0.036l0.038,0.087h0.018
		l0.051,0.038l0.036,0.019l0.039,0.018L272.744,82.343z M271.966,83.063l0.038-0.019l0.055,0.019l0.012,0.038h0.058l0.018-0.021
		l0.018-0.055l-0.018-0.038h-0.087l-0.039-0.018h-0.054l-0.018,0.056L271.966,83.063z M272.869,83.369l0.036-0.039l0.02-0.037
		l-0.037-0.031l-0.019-0.056V83.15h-0.039l-0.017,0.019l0.017,0.056l0.018,0.018l-0.035,0.039l-0.014,0.049l0.03,0.039H272.869z
		 M271.512,83.872l0.056-0.051l-0.019-0.037l-0.037-0.056l-0.031,0.018l-0.056,0.056v0.05l0.056,0.02H271.512z M270.92,82.485
		l-0.073,0.019v0.051l0.037,0.037l0.036,0.02h0.057l0.031-0.038l-0.049-0.069L270.92,82.485z M271.949,82.523l0.035-0.02v-0.055
		l-0.035-0.02l-0.039-0.018v-0.068l-0.019-0.02l-0.05,0.02l-0.019,0.031l0.019,0.055l0.038,0.02l0.03,0.018L271.949,82.523z
		 M270.74,84.089l0.037,0.02h0.051v-0.039l-0.019-0.036l-0.05-0.013l-0.075-0.039h-0.036l-0.02,0.02v0.019l0.057,0.031
		L270.74,84.089z M272.601,81.981l-0.02-0.056h-0.037l-0.074,0.019l-0.018,0.057v0.031h0.13L272.601,81.981z M270.903,83.71
		l0.057,0.057h0.03l0.037-0.02l-0.019-0.037l-0.031-0.018l-0.017-0.02l-0.02-0.018l-0.037-0.013h-0.056v0.05l0.017,0.018H270.903z
		 M271.337,82.192l-0.037,0.02v0.093l0.037,0.087h0.05l0.02-0.018v-0.051l-0.039-0.055v-0.057L271.337,82.192z M270.447,83.114
		l0.039,0.036l0.038,0.019l0.037-0.019v-0.048l0.036-0.021v-0.018l-0.036-0.037l-0.114,0.018V83.114z M271.804,82.069h-0.057
		l-0.019,0.056l0.056,0.036l0.057,0.031l0.02-0.018l0.019-0.013l-0.019-0.055L271.804,82.069z M272.146,82.248h0.075l0.037-0.018
		l0.05-0.018l0.019-0.02v-0.031h-0.124l-0.038,0.031l-0.036,0.02L272.146,82.248z M271.804,83.91l-0.036-0.057v-0.031l-0.057-0.037
		l-0.051,0.037v0.031l0.051,0.038l0.036,0.039l0.037-0.02H271.804z M272.993,82.952v-0.02l-0.068-0.142h-0.037l-0.039,0.018
		l0.021,0.057l0.073,0.087H272.993z M271.699,82.665l-0.018-0.018l-0.093,0.018v0.069l0.018,0.018h0.106l0.018-0.031L271.699,82.665
		z M271.351,82.628l0.036,0.037l0.075,0.038h0.037l0.013-0.075l-0.031-0.038h-0.13V82.628z M271.699,82.901l0.03-0.055l-0.049-0.056
		l-0.093,0.037l-0.02,0.056l0.093,0.049L271.699,82.901z M272.004,83.929v-0.057h-0.125l-0.019,0.037l-0.02,0.038l0.038,0.019h0.03
		l0.039-0.019h0.035L272.004,83.929z M271.568,84.035l0.037-0.013l0.056-0.056l-0.018-0.037l-0.019-0.02h-0.056l-0.056,0.056v0.018
		l0.02,0.051H271.568z M270.58,83.312l-0.019-0.019l-0.019-0.031h-0.057v0.031l0.057,0.075l0.019,0.019h0.05l0.017-0.039V83.33
		l-0.017-0.018H270.58z M271.065,83.692h0.02l0.035-0.038v-0.05h-0.018v-0.038l0.018-0.018v-0.039l-0.035-0.018l-0.02,0.018
		l-0.018,0.02v0.037l0.018,0.019v0.019l-0.038,0.018l0.02,0.049L271.065,83.692z M272.432,82.087h-0.05v0.087l0.019,0.038
		l0.069,0.018l0.018-0.056l-0.018-0.049L272.432,82.087z M271.008,82.847l-0.031-0.02l-0.037,0.02l-0.019,0.075l0.019,0.049h0.05
		l0.037-0.019l-0.019-0.069V82.847z M270.38,83.605l0.036-0.019l0.013-0.055l-0.013-0.069h-0.036l-0.037,0.031l-0.02,0.057
		l0.02,0.056H270.38z M272.563,81.85l0.069-0.018l0.019-0.031v-0.037l-0.031-0.019h-0.038l-0.057,0.019v0.05l0.02,0.036H272.563z
		 M271.879,82.971h0.069l-0.021-0.038v-0.049l-0.049-0.018l-0.057,0.036v0.031l0.038,0.057L271.879,82.971z M271.879,81.907
		l0.049,0.019l0.056-0.019l0.036-0.057l-0.016-0.036h-0.076l-0.049,0.056V81.907z M272.488,83.081l0.057-0.018l0.019-0.056
		l-0.019-0.037h-0.057l-0.036,0.018l-0.02,0.038l0.02,0.037L272.488,83.081z M271.624,82.23l0.019,0.018h0.069l0.093,0.038h0.037
		v-0.018l-0.019-0.038l-0.075-0.018l-0.105-0.02L271.624,82.23z M270.759,83.785l0.031-0.018v-0.038l-0.014-0.037h-0.11v0.018
		l0.018,0.057L270.759,83.785z M270.144,82.161v0.051l0.018,0.037l0.019,0.02l0.02-0.02l0.018-0.018v-0.056l-0.018-0.013
		l0.018-0.018h0.049v-0.037h-0.087L270.144,82.161z M272.887,81.726l-0.019,0.038v0.037l0.019,0.031l0.037,0.018l0.036,0.02v-0.105
		l-0.036-0.038H272.887z M270.267,82.827l0.021-0.019l0.019-0.037v-0.069h-0.075l-0.013,0.031v0.057l0.013,0.037H270.267z
		 M270.447,82.752l0.039,0.02l0.075-0.02l0.019-0.049v-0.056l-0.076,0.018l-0.057,0.038V82.752z M271.785,83.188h0.038l0.019-0.019
		v-0.037l-0.019-0.051v-0.074h-0.038l-0.037,0.056l0.021,0.069L271.785,83.188z M271.879,83.655v-0.031l-0.019-0.018h-0.057
		l-0.057,0.037v0.068h0.075L271.879,83.655z M270.398,83.405h0.031v-0.036l-0.031-0.057l-0.055-0.019h-0.02l-0.018,0.037
		l0.018,0.039L270.398,83.405z M272.02,81.688h-0.016l-0.076-0.018l-0.018-0.018l-0.019,0.036l0.058,0.039h0.056l0.055,0.038
		l0.012-0.019l0.021-0.057l-0.021-0.018L272.02,81.688z M270.542,84.022h0.055l0.014-0.019l-0.014-0.038l-0.055-0.037h-0.096v0.037
		l0.039,0.018L270.542,84.022z M271.984,83.586l-0.056-0.055l-0.037,0.019l-0.012,0.018l0.012,0.038l0.075,0.068h0.018l0.021-0.018
		L271.984,83.586z M271.699,83.729v-0.037l-0.057-0.02h-0.055l-0.02,0.038v0.037l0.037,0.02h0.075L271.699,83.729z M272.203,81.783
		h-0.038l-0.036,0.031v0.056l0.018,0.019l0.075-0.019l0.02-0.038l0.018-0.031l-0.018-0.037L272.203,81.783z M271.748,81.85
		l-0.049,0.02v0.037l0.03,0.038l0.019,0.019l0.057-0.019l0.019-0.019l-0.038-0.056L271.748,81.85z M272.071,84.146l0.021,0.019
		h0.017l0.021-0.038l-0.037-0.038l-0.071-0.067h-0.054v0.031l0.054,0.057L272.071,84.146z M271.605,82.374l0.056,0.037l0.051,0.038
		h0.018l0.019-0.02v-0.037l-0.067-0.069h-0.057L271.605,82.374z M271.699,84.035l-0.018,0.036l0.018,0.019h0.049l0.037-0.055v-0.031
		l-0.017-0.038h-0.039L271.699,84.035z M272.508,82.703l-0.038-0.038h-0.088l-0.018,0.02v0.037l0.036,0.012h0.087L272.508,82.703z
		 M272.581,83.063v0.051l0.038,0.055h0.031l0.018-0.037v-0.087l-0.036-0.018L272.581,83.063z M270.828,83.369l0.02-0.039
		l-0.02-0.037h-0.019l-0.069,0.019l-0.017,0.037l0.037,0.039l0.031,0.018L270.828,83.369z M270.94,83.91l0.037,0.02l0.031-0.039
		l-0.031-0.049l-0.057-0.02l-0.036,0.02v0.011l0.018,0.038L270.94,83.91z M270.486,83.567l0.018,0.019l0.039-0.019l0.055-0.057
		l0.014-0.049l-0.031-0.019l-0.037,0.019l-0.039,0.031l-0.018,0.038V83.567z M271.861,81.602v-0.094l-0.038-0.019h-0.019
		l-0.02,0.019v0.125h0.038L271.861,81.602z M272.651,82.192l0.038,0.02l0.018-0.051l-0.018-0.055v-0.019l-0.021-0.018l-0.036,0.038
		l-0.031,0.037l0.018,0.018L272.651,82.192z M270.828,82.827l-0.037-0.019l-0.014,0.038v0.037l0.051,0.049h0.036v-0.011
		l-0.017-0.056L270.828,82.827z M272.401,83.027l0.031-0.056v-0.038l-0.05-0.011l-0.037,0.011v0.057l-0.018,0.018l0.018,0.038
		L272.401,83.027z M272.272,82.952l-0.014-0.031l-0.056-0.056h-0.038l-0.018,0.018l0.039,0.049l0.036,0.057h0.037L272.272,82.952z
		 M270.96,82.79v-0.069l-0.039-0.057h-0.036l-0.021,0.02l0.021,0.067l0.036,0.038H270.96z M272.004,83.207l0.016-0.019l-0.016-0.056
		h-0.113l-0.012,0.037l0.03,0.038H272.004z M271.879,84.071l-0.019,0.039v0.037l0.049,0.037l0.039,0.019h0.018v-0.056l-0.018-0.037
		L271.879,84.071z M272.071,82.106l-0.03,0.019l-0.021,0.036l0.021,0.051l0.051-0.02l0.017-0.031l0.021-0.036l-0.021-0.019H272.071z
		 M271.785,81.814l0.038,0.018h0.057l0.012-0.049l-0.012-0.038h-0.057l-0.038,0.019V81.814z M272.744,82.971l0.056,0.037
		l0.014-0.018v-0.057l-0.052-0.067l-0.036,0.018l-0.018,0.038l0.018,0.031L272.744,82.971z M272.651,81.925v0.038l0.018,0.018
		l0.057-0.018h0.074l0.014-0.019l-0.014-0.038h-0.092L272.651,81.925z M272.382,82.79v0.037l0.019,0.038l0.051,0.036l0.036-0.018
		l-0.036-0.093l-0.031-0.018L272.382,82.79z M270.864,83.966l-0.017-0.019l-0.02-0.018l-0.037-0.039l-0.031-0.038h-0.037
		l-0.018,0.038v0.019h0.055l0.031,0.02v0.037l0.073,0.018V83.966z M270.977,84.127l0.05-0.018l0.02-0.039l-0.02-0.049h-0.019
		l-0.031,0.013l-0.017,0.018h-0.039l0.019,0.057L270.977,84.127z M272.799,83.263v-0.038l-0.038-0.075h-0.036l-0.018,0.057v0.018
		l0.018,0.038l0.056,0.019L272.799,83.263z M270.524,82.106l0.037-0.038l-0.019-0.037l-0.039-0.02l-0.036,0.02l-0.038,0.018
		l0.018,0.057H270.524z M272.04,83.853l0.019,0.038h0.012l0.021-0.038l-0.021-0.068l-0.03-0.038l-0.036,0.02l0.016,0.054
		L272.04,83.853z M272.308,81.764v0.037l0.019,0.013h0.056l0.019-0.013l0.069-0.019v-0.038h-0.143L272.308,81.764z M271.861,82.012
		l0.019,0.02h0.03l0.018,0.055l0.038,0.019h0.018l0.021-0.019l-0.021-0.037l-0.035-0.018l-0.021-0.02l-0.018-0.031h-0.049V82.012z
		 M272.887,82.591v-0.037l-0.088-0.013l-0.038,0.031v0.038h0.107L272.887,82.591z M270.267,82.374v-0.031h-0.066l-0.02,0.068
		l0.02,0.018h0.049L270.267,82.374z M272.185,82.001l-0.021,0.049l0.057,0.037h0.037l0.014-0.018l-0.014-0.068l-0.037-0.02
		L272.185,82.001z M271.568,82.485l0.02-0.036v-0.057l-0.038-0.018l-0.037,0.018v0.111h0.037L271.568,82.485z M270.306,82.61v0.037
		l0.037,0.018l0.037-0.018l0.036-0.037v-0.038h-0.093L270.306,82.61z M270.864,83.225l0.039,0.018h0.018l0.019,0.02l0.05,0.019
		l0.019-0.039l-0.019-0.018l-0.03-0.037l-0.096,0.019V83.225z M270.58,83.729l-0.037,0.038l-0.039,0.036v0.019l0.02,0.031h0.037
		l0.019-0.068l0.018-0.018l0.014-0.038H270.58z M273.067,82.23l0.019-0.038v-0.049l-0.037-0.018l-0.037,0.018l-0.018,0.031
		l0.018,0.056H273.067z M270.447,82.343v0.106l0.039,0.018h0.018l0.02-0.038v-0.067l-0.02-0.019H270.447z M272.221,83.207
		l0.037-0.038l-0.018-0.037l-0.056,0.018h-0.057l-0.037,0.038l0.073,0.019H272.221z M271.928,82.192l-0.018,0.076l0.018,0.037h0.038
		l0.038-0.037V82.23l-0.038-0.038H271.928z M272.091,83.33l0.017-0.049l-0.017-0.039h-0.032l-0.039,0.039v0.067h0.021L272.091,83.33
		z M272.382,84.233l0.019-0.05l-0.036-0.018l-0.057,0.018l-0.02,0.05v0.018l0.057,0.019L272.382,84.233z M270.38,83.842h0.036
		l0.03-0.039l-0.03-0.036l-0.036-0.02l-0.037,0.02l-0.02,0.036L270.38,83.842z M270.343,82.192l0.037,0.038h0.049l0.018-0.018
		v-0.038l-0.018-0.013h-0.049L270.343,82.192z M272.432,83.169h-0.124l-0.02,0.038l0.038,0.018h0.105V83.169z M271.444,82.772
		l-0.018-0.05l-0.074-0.019l-0.014,0.031l0.03,0.057l0.058,0.018L271.444,82.772z M272.221,82.343l-0.036-0.02h-0.039l-0.038,0.02
		v0.049l0.057,0.019l0.057-0.019V82.343z M270.343,83.263l0.037-0.02l-0.021-0.055l-0.054-0.056l-0.039,0.018l-0.018,0.019
		l0.057,0.074L270.343,83.263z M271.263,82.012l0.018,0.075h0.038l0.032-0.037v-0.068H271.3L271.263,82.012z M272.071,82.032
		l0.021-0.05l-0.032-0.056l-0.039,0.019v0.105h0.021L272.071,82.032z M272.98,82.125l-0.038-0.038h-0.094l-0.018,0.019l0.018,0.037
		l0.094,0.018L272.98,82.125z M272.799,81.783h-0.092v0.067l0.073,0.02l0.032-0.02L272.799,81.783z M270.627,83.655l0.039-0.013
		l-0.019-0.037v-0.038l-0.02-0.018h-0.03l-0.018,0.074l0.031,0.031H270.627z M272.563,82.554l-0.038,0.037v0.038l0.038,0.037h0.057
		V82.61l-0.018-0.038L272.563,82.554z M272.272,82.449h-0.031l-0.038,0.018l-0.018,0.037v0.051h0.056l0.018-0.051l0.014-0.019
		V82.449z M272.164,82.752l0.038-0.018l0.038-0.049l-0.02-0.038l-0.057,0.018l-0.036,0.057l0.018,0.031H272.164z M270.74,82.772
		l0.02-0.02l-0.037-0.049l-0.038-0.038h-0.036v0.038l0.036,0.019l0.038,0.05H270.74z M272.47,82.541l0.038-0.018v-0.074
		l-0.057,0.018l-0.02,0.037l-0.031,0.02v0.018l0.02,0.013h0.012L272.47,82.541z M270.611,83.263h0.037l0.036-0.056h0.075v-0.019
		l-0.02-0.019h-0.035l-0.057,0.019l-0.037,0.037V83.263z M272.761,82.248l0.02,0.038l0.018,0.019h0.03v-0.093l-0.049-0.02h-0.02
		V82.248z M270.306,83.081l0.018,0.021l0.036,0.012l0.038-0.033v-0.037l-0.038-0.018h-0.054V83.081z M270.94,83.493v-0.105
		l-0.019-0.019l-0.036,0.019v0.086l0.036,0.019H270.94z M271.046,83.405h-0.038v0.038l0.057,0.019h0.055l0.02-0.037v-0.02
		l-0.038-0.018h-0.036L271.046,83.405z M271.587,82.541v0.087h0.055l0.018-0.056l-0.018-0.031l-0.037-0.018L271.587,82.541z
		 M271.879,83.822l0.03-0.037v-0.018l-0.03-0.02l-0.038,0.02l-0.037,0.036l0.019,0.039L271.879,83.822z M270.524,82.541v0.031
		l0.037,0.019h0.019l0.031-0.019l0.017-0.018l-0.017-0.031h-0.05L270.524,82.541z M271.748,82.685l0.021,0.049l0.017,0.075
		l0.038-0.056v-0.031l-0.019-0.057l-0.036-0.018L271.748,82.685z M272.83,83.102l-0.017-0.057h-0.069l-0.019,0.037v0.033
		l0.056,0.018L272.83,83.102z M270.417,83.673v0.038l0.03,0.019h0.039l0.018-0.037l-0.018-0.05l-0.039-0.019L270.417,83.673z
		 M271.226,84.071l-0.02-0.049h-0.105v0.031l0.018,0.018H271.226z M272.327,82.032l0.018,0.018l0.056-0.018v-0.05l-0.036-0.037
		h-0.038V82.032z M272.02,82.305l-0.036,0.018v0.038l0.021,0.013l0.036,0.018l0.03-0.018v-0.051l-0.012-0.018H272.02z
		 M272.221,84.251v-0.05l-0.057-0.019l-0.036,0.019v0.031l0.018,0.038l0.039,0.019L272.221,84.251z M272.993,82.485h-0.068
		l-0.02,0.038l0.02,0.049h0.018l0.038-0.018l0.013-0.031V82.485z M272.327,84.433l-0.019-0.038l-0.036-0.013h-0.051l-0.019,0.051
		l0.086,0.018L272.327,84.433z M272.02,82.685v0.018l0.021,0.031h0.019l0.032-0.012l0.037-0.037l-0.021-0.038h-0.037L272.02,82.685z
		 M272.272,82.809l-0.014-0.056l-0.037-0.018l-0.019,0.075l0.038,0.019v0.038h0.031V82.809z M272.432,81.925V81.85l-0.031-0.018
		h-0.036l-0.02,0.038l0.037,0.037L272.432,81.925z M272.04,84.289l0.019,0.018l0.012-0.018V84.27l-0.012-0.056l-0.039-0.013
		l-0.036,0.013l0.021,0.056L272.04,84.289z M270.288,82.392l-0.021,0.057l0.039,0.018l0.037-0.018l0.017-0.057l-0.017-0.031h-0.037
		L270.288,82.392z M272.108,84.308l-0.049,0.038l0.012,0.018l0.021,0.018l0.055,0.013l0.018-0.031l-0.018-0.038L272.108,84.308z
		 M272.601,82.883l-0.02,0.018v0.031l0.051,0.038h0.019v-0.049l-0.019-0.038H272.601z M270.611,82.734v0.057l0.017,0.056h0.039
		l0.018-0.038l-0.018-0.056l-0.039-0.018H270.611z M272.059,82.809l0.032,0.075l0.017,0.018l0.021-0.036l-0.021-0.075l-0.049-0.018
		V82.809z M270.324,82.772v0.093h0.02l0.037-0.018l0.017-0.056l-0.017-0.038L270.324,82.772z M271.065,83.243v0.039l0.02,0.012
		l0.055,0.019l0.013-0.019l0.037-0.012l-0.037-0.039H271.065z M270.74,83.605h0.037v-0.074h-0.072v0.037l0.018,0.019L270.74,83.605z
		 M271.785,82.503l-0.017-0.037l-0.039,0.018l-0.03,0.056l0.013,0.031l0.036-0.018L271.785,82.503z M270.648,83.102l0.019,0.03
		h0.018l0.038-0.018v-0.033l-0.018-0.018h-0.038L270.648,83.102z M270.627,82.429h-0.03v0.02l0.014,0.036l0.017,0.019h0.039
		l0.018-0.019l-0.018-0.036L270.627,82.429z M272.164,82.541v-0.056l-0.018-0.018h-0.055v0.037l0.017,0.038H272.164z M272.432,81.67
		l0.02,0.018l0.036-0.018l0.021-0.018v-0.049l-0.021-0.02h-0.036l-0.02,0.051V81.67z M271.407,81.726l0.037,0.038h0.056v-0.038
		l-0.056-0.039h-0.037V81.726z M272.525,82.827h0.038V82.79l-0.019-0.038h-0.036l-0.021,0.02l0.021,0.037L272.525,82.827z
		 M272.98,81.652l-0.075-0.018l-0.018,0.018v0.036h0.018l0.075,0.021l0.013-0.039L272.98,81.652z M270.722,82.523l-0.038,0.031
		v0.037h0.021l0.055-0.037l0.018-0.013l-0.018-0.018H270.722z M272.813,82.001l0.017,0.031h0.075l0.037-0.02l-0.018-0.031h-0.095
		L272.813,82.001z M272.091,84.035l0.037-0.013v-0.056l-0.058-0.019l-0.03,0.036l0.019,0.051H272.091z M272.725,81.688v0.021
		l0.056,0.018h0.049l0.018-0.039l-0.067-0.018L272.725,81.688z M270.864,83.549h0.057l-0.018-0.039l-0.039-0.018h-0.017
		l-0.038,0.018v0.039l0.038,0.018L270.864,83.549z M271.351,83.768l0.056-0.038V83.71l-0.02-0.018l-0.05,0.037l-0.019,0.038
		l0.019,0.018L271.351,83.768z M272.365,82.503l-0.038-0.019l-0.019-0.018l-0.036,0.056v0.018h0.073L272.365,82.503z
		 M271.861,82.572l-0.02-0.031h-0.019l-0.038,0.013l-0.017,0.056h0.073L271.861,82.572z M272.725,81.621l0.036,0.013h0.107
		l-0.021-0.031h-0.123V81.621z M270.417,82.429l-0.019-0.018h-0.038v0.056l0.038,0.018h0.031L270.417,82.429z M270.759,82.61
		l-0.02,0.037l0.02,0.018l0.018,0.02h0.014l0.019-0.02v-0.018l-0.019-0.037H270.759z M272.345,84.326l-0.037-0.018h-0.036
		l-0.014,0.018l0.014,0.038h0.055L272.345,84.326z M272.059,82.503v-0.037l-0.019-0.038h-0.021l-0.016,0.075l0.036,0.02
		L272.059,82.503z M271.425,82.05l0.018,0.019h0.068v-0.037h-0.068L271.425,82.05z M271.91,82.665V82.61l-0.019-0.038l-0.03,0.019
		v0.056l0.019,0.018H271.91z M272.887,82.485l-0.039-0.018h-0.035v0.018l0.035,0.019h0.057L272.887,82.485z M271.462,83.642
		l0.019,0.013h0.031l0.02-0.013v-0.037h-0.032L271.462,83.642z M270.648,83.872v-0.02l-0.02-0.011l-0.017,0.031v0.018h0.017
		L270.648,83.872z M271.368,81.421l-0.03,0.033l-0.019,0.111v0.018l0.019,0.087h0.03l0.02-0.036v-0.105l0.02-0.057l-0.02-0.03
		L271.368,81.421z M271.642,81.652l0.038,0.018l0.031-0.018h0.018l0.019-0.031v-0.18l-0.036-0.02l-0.069,0.033V81.652z
		 M271.949,81.509l-0.021,0.038v0.017h0.021l0.092,0.018l0.067,0.039l0.133,0.067h0.048l0.094-0.036l0.038-0.069v-0.054l-0.02-0.02
		l-0.036,0.056l-0.02,0.018v0.02l-0.018,0.031h-0.086l-0.076-0.031l-0.018-0.02h0.199l-0.199-0.018h-0.018l-0.021-0.017
		l-0.049,0.017l-0.019-0.017l-0.036-0.038H271.949z M272.581,81.49l-0.037,0.019v0.074l0.019,0.069l0.057,0.018h0.013l0.019-0.036
		v-0.069l-0.031-0.056L272.581,81.49z M272.96,81.547l-0.019,0.017l0.019,0.018l0.032,0.02h0.036l0.02-0.02l-0.02-0.036H272.96z
		 M273.789,81.509l-0.069-0.037h-0.055l-0.143,0.018l-0.075,0.019l-0.018,0.038l0.018,0.017l0.028-0.014l0.39,0.176l0.018,0.038
		l0.03,0.037h0.036l0.017-0.029l0.022,0.011l-0.105-0.254h-0.037v-0.02H273.789z M273.484,81.546l0.018-0.018l0.106-0.02h0.094
		l0.051,0.02L273.484,81.546z M273.539,80.663l-0.018-0.018l-0.038-0.037l0.037,0.036l-0.074-0.056h-0.018l0.018,0.038l0.143,0.124
		l0.057,0.056l0.219,0.218l0.037,0.087l0.065,0.172l0.003,0.026l0.111,0.777l-0.037,0.162l0.018,0.02h0.019v-0.02l0.02-0.056
		l0.012,0.076l-0.012-0.094l0.012-0.087l0.019-0.18l-0.019-0.237l-0.05-0.198l-0.018-0.069l-0.038-0.111l-0.018-0.019l-0.019-0.161
		l-0.068-0.069l-0.037-0.056l-0.132-0.162l-0.124-0.111L273.539,80.663z M274.043,81.49l0.037,0.162l0.031,0.218l-0.012,0.131
		l-0.02,0.068l-0.075-0.666L274.043,81.49z M270.561,80.95l-0.075,0.055l1.585-0.92l1.026,0.228l-0.933-0.247h0.094l0.143,0.038
		l0.25,0.037l0.218,0.049l0.16,0.038l0.256,0.111l0.058,0.028l-0.245-0.054l0.293,0.077l0.088,0.022l0.093,0.034l0.018,0.019
		l0.019-0.019v-0.038l-0.106-0.036l-0.142-0.051l-0.168-0.074l-0.163-0.056l-0.16-0.031l-0.236-0.055l-0.231-0.056l-0.143-0.021
		h-0.218l-0.131,0.039l-0.198,0.075l-0.18,0.087l-0.213,0.092l-0.13,0.051l-0.124,0.093l-0.144,0.124l-0.161,0.162l-0.162,0.144
		l-0.13,0.056l-0.02,0.018l-0.018,0.019v0.018h0.038L270.561,80.95z M271.729,80.171l0.014-0.003l-0.064,0.024L271.729,80.171z
		 M270.94,80.608l0.016-0.012l-0.027,0.024L270.94,80.608z M272.725,80.588l-0.057-0.018h-0.049l-0.168,0.112l-0.125,0.031
		l-0.086,0.037l-0.056,0.038l-0.039,0.055l0.046,0.016l-0.007,0.004h0.303l0.037-0.02h0.02l0.217-0.143v-0.038l-0.018-0.037
		L272.725,80.588z M272.308,80.806h-0.036l-0.014-0.018l0.014-0.02h0.017l0.02,0.02V80.806z M272.091,80.482l-0.021,0.038
		l-0.066,0.011l-0.076,0.15l-0.037,0.086l0.037,0.02l0.038,0.018l0.074-0.018h0.067l0.133-0.256l0.018-0.031l-0.018,0.02v-0.038
		H272.091z M272.108,80.626l0.021-0.038l0.036-0.018l0.021-0.019L272.108,80.626z M273.501,81.06l-0.056-0.018h-0.161v0.049
		l0.036,0.02l0.069,0.093l0.093,0.087h0.038l0.018-0.019l-0.018-0.011l-0.056-0.057l-0.02-0.02V81.13l0.037-0.019l0.057,0.037
		l0.013,0.036l0.036-0.018V81.13l-0.036-0.038L273.501,81.06z M271.841,81.024l-0.037,0.036l-0.02,0.031l-0.017,0.038l-0.039,0.074
		v0.057h0.056l0.02-0.039l0.037-0.038l0.02-0.018l-0.038,0.095l0.218-0.077l-0.082-0.113l-0.03-0.047h-0.004l-0.015-0.02v0.02
		l-0.019-0.02L271.841,81.024z M271.481,81.148l-0.056,0.018v0.106l0.018,0.075h0.088l0.056-0.037l0.018-0.037v-0.049l-0.037-0.038
		L271.481,81.148z M272.128,81.166v-0.018l-0.037-0.057l-0.021-0.012l0.021-0.019l0.055-0.074l0.018-0.037v-0.02l-0.036-0.036
		h-0.069l-0.039,0.036l-0.036,0.057v0.018l0.107,0.144L272.128,81.166z M272.42,81.272l-0.02,0.037l0.02,0.019h0.05l0.093-0.019
		l0.018-0.037h0.038l0.013,0.019l0.019,0.037h0.057v-0.037l-0.039-0.03l-0.036-0.095h-0.031l-0.038,0.038v0.057h-0.093
		L272.42,81.272z M272.887,81.148h-0.039l-0.018,0.018l0.018,0.038l0.021,0.019v0.124l0.036,0.02l0.02-0.02l0.018-0.018l0.019-0.037
		v-0.051l-0.036-0.037L272.887,81.148z M271.984,81.291l-0.035,0.018h-0.058l-0.012,0.037v0.038l0.03,0.019h0.095l0.016-0.037v-0.02
		l-0.016-0.037L271.984,81.291z M271.605,81.024l-0.037,0.018v0.049l0.056,0.038l0.057,0.018h0.049v-0.037l-0.068-0.051
		L271.605,81.024z M272.508,80.986v0.018l0.036,0.038h0.057l0.018-0.038l0.013-0.018V80.93h-0.107L272.508,80.986z M272.059,81.366
		v0.055l0.012,0.02l0.037,0.012l0.038-0.033l0.018-0.018v-0.074h-0.073L272.059,81.366z M272.258,80.893v0.036l0.014,0.02
		l0.055,0.037l0.038-0.037v-0.069h-0.093L272.258,80.893z M272.185,81.024v0.036l0.036,0.031l0.051,0.02l0.036-0.032v-0.055
		l-0.02-0.02h-0.067L272.185,81.024z M272.689,80.95h0.055l0.018-0.02v-0.049l-0.054-0.019l-0.039-0.02l-0.018,0.038l0.018,0.049
		L272.689,80.95z M272.345,81.509l0.02-0.037l-0.057-0.03l-0.036,0.012l-0.014,0.036v0.039h0.03L272.345,81.509z M272.488,81.403
		l-0.056,0.018v0.033h0.076l0.073-0.033v-0.018l-0.018-0.019L272.488,81.403z M272.327,81.403v-0.019l-0.019-0.038l-0.036-0.037
		h-0.014l-0.018,0.019v0.056l0.018,0.019H272.327z M272.744,81.441l-0.036-0.039l-0.057,0.018v0.033l0.038,0.036l0.018,0.019
		l0.054-0.019L272.744,81.441z M272.632,81.08l0.019,0.012l0.057,0.02l0.018,0.055h0.036l0.02-0.037l-0.056-0.038l-0.057-0.031
		h-0.018L272.632,81.08z M272.02,81.261l0.039,0.03h0.032l0.017-0.019v-0.031l-0.037-0.018h-0.051V81.261z M272.164,81.184
		l-0.018,0.02l0.057,0.019h0.069v-0.019l-0.031-0.038h-0.056L272.164,81.184z M271.68,81.291l-0.02,0.037l0.02,0.018l0.031,0.02
		h0.036l0.021-0.038l-0.039-0.037H271.68z M272.452,81.042l-0.031-0.018l-0.02,0.055l0.051,0.032h0.018l0.018-0.02l-0.018-0.031
		L272.452,81.042z M272.401,81.261l-0.019-0.039l-0.056-0.019h-0.019l-0.02,0.037l0.038,0.031h0.056L272.401,81.261z
		 M272.004,80.893h-0.038l-0.038,0.018v0.038l0.038,0.018l0.054-0.056L272.004,80.893z M272.761,80.968l-0.036,0.019v0.038
		l0.036,0.036l0.038-0.018v-0.038l-0.018-0.018L272.761,80.968z M272.365,81.111l-0.02,0.019v0.018l0.02,0.018l0.036,0.018h0.02
		l0.012-0.036l-0.031-0.018L272.365,81.111z M265.455,93.979l0.049,0.18l-1.008,0.796l-0.18-0.198l0.448-0.342l-0.542,0.379
		l0.273,0.398l1.134-0.741l-0.163-0.503l-0.608,0.392L265.455,93.979z M269.857,84.071l-0.017,0.039l0.017,0.037h0.031l0.132,0.125
		v0.037l0.019,0.018v-0.018l0.012,0.018l0.074-0.036h0.056l0.069-0.019l0.074-0.019v-0.068h0.02l-0.02-0.018l-0.036-0.038
		l-0.038,0.019h-0.018l-0.145-0.037l0.038-0.075h0.056l0.02-0.031l-0.02-0.02l-0.019-0.018l0.162-0.273l-0.018-0.02h-0.019
		l-0.038-0.049l-0.031-0.056l-0.132-0.143l0.132-0.417l-0.168-0.379l0.018-0.018l0.038-0.038l-0.021-0.031l-0.065-0.014
		l-0.001-0.004l-0.001,0.004l-0.02-0.004h-0.056v0.105l-0.036,0.057l-0.037,0.049l-0.014,0.093l0.014,0.056l0.037,0.087l-0.02,0.074
		l-0.031,0.057v0.048l0.051,0.075l0.02,0.038l-0.02,0.18l-0.02,0.067v0.057l-0.018,0.075v0.031l-0.014,0.057h0.07l0.197-0.019
		l-0.018,0.037l-0.087,0.074l-0.039-0.054h-0.037l-0.017,0.074l0.054,0.011l0.018,0.038l-0.018,0.039l-0.054,0.093l-0.057-0.019
		l-0.014,0.019l0.031,0.013h0.02l-0.02,0.036H269.857z M270.124,81.204l-0.018,0.057l0.31-0.548L270.124,81.204z M271.12,88.588
		l-0.035-0.075l-0.145-0.218l-0.019-0.018h-0.018l-0.075,0.056l-0.019,0.019l0.075,0.075l0.093,0.162l0.013,0.018l0.095,0.429v0.018
		l-0.02,0.236l0.02,0.038l0.055,0.019l0.013,0.049l-0.013,0.02h-0.038l-0.036-0.02l-0.018,0.02l0.038,0.018l0.035,0.019h0.02
		l0.013-0.019l0.019,0.019v-0.037l0.019-0.038l0.017-0.18l0.02-0.199l-0.02-0.142v-0.126L271.12,88.588z M272.744,84.308v-0.018
		l-0.036-0.057l-0.075-0.031l-0.013-0.019v0.019l-0.038-0.019h-0.057l-0.037,0.068l0.021,0.074l-0.038,0.069l-0.018,0.056
		l-0.02,0.093l0.02,0.031l0.018,0.019l0.055-0.019v-0.087l0.02-0.106l0.057-0.018l-0.038,0.229l0.069-0.105l0.036,0.02l0.021-0.02
		l0.072-0.019l0.02-0.036l-0.02-0.038l-0.036-0.013l0.056-0.056L272.744,84.308z M273.36,84.035l0.086-0.069l0.143-0.181
		l0.057-0.112l0.2-0.248l0.18-0.672h0.019l0.037-0.105l0.02-0.124l0.03-0.149l-0.03,0.129l0.012-0.055v-0.075H274.1v0.075
		l-0.034,0.179l-0.011,0.031l-0.05,0.093l-0.123,0.255l-0.037,0.074l-0.02,0.088v0.094l-0.019,0.106l-0.143,0.217l-0.112,0.182
		l-0.013,0.018l-0.145,0.196l-0.147,0.146l0.094-0.075l-0.057,0.075L273.36,84.035z M273.807,83.405l0.038-0.142v-0.094l0.037-0.124
		l0.123-0.254l-0.16,0.597l-0.093,0.123L273.807,83.405z M272.382,82.323h-0.074l-0.02-0.018h-0.017l-0.014,0.018v0.038l0.014,0.013
		l0.017,0.018h0.076l0.018,0.037l0.019-0.018l0.02,0.018l0.031-0.037l0.018,0.019h0.018l0.021-0.019v-0.049l0.017-0.038h-0.073
		L272.382,82.323z M272.308,82.374v-0.031l0.037,0.031H272.308z M216.287,82.865l0.754,0.36l-0.504-2.257l-1.188-0.38l-0.76,1.121
		l0.959,1.157H216.287z M148.313,105.479l0.087,0.305l0.379,0.36l0.218-1.318l-0.218-1.1l-1.081-0.162l-0.162,0.472l0.287,0.828
		L148.313,105.479z M68.752,123.255l-0.056-0.247h0.056l-0.02-0.132l0.094,0.036l0.068-0.018l0.056-0.069v0.249l0.038,0.236
		l0.211-0.105l-0.143,0.398l0.074,0.864l0.287,0.236l0.161-0.491l0.256-0.56l0.019-0.18l0.125-0.417l-0.249-0.553l-0.653-0.511
		l-0.268-0.018l-0.473,0.36l0.075,0.616L68.752,123.255z M85.556,147.282l0.2,0.18l0.591-0.614l0.397-0.903l-0.105-0.267l0.105-0.2
		l0.037-0.236l-0.503-0.776l-0.703,0.304l-0.361,1.033v0.665l-0.255,0.473l0.199,0.181L85.556,147.282z M221.138,140.857
		l0.958-0.492l0.635-1.854l-0.055-0.89l-0.562-0.579l-1.231-0.825l-0.753,0.093l0.18,0.592l0.885,0.652l0.143,0.342l-0.056,0.285
		l-0.267-0.123l-0.579-0.361l-0.645-0.161l-0.418,0.067l0.145,0.437L221.138,140.857z M210.871,144.302l1.481,0.417l1.262,0.561
		l0.597,1.139l0.465-1.66l-0.607-1.556l-2.24-2.475l-0.776-0.704l-1.3,0.541l-0.799,1.337l0.654,1.68L210.871,144.302z
		 M214.298,141.037l0.738,0.522l1.015,1.188l0.361,0.197h0.628l0.528-0.123l0.554-0.286l0.527-0.436l0.41-0.54l-1.311-1.517
		l-0.578-0.902l-0.521-1.082l-0.854-0.039l-0.828,0.293l-0.702,0.467l-0.417,0.598l-0.311,1.008l0.217,0.398L214.298,141.037z
		 M228.304,133.711l1.537,0.285l0.826-0.273l-0.049-0.733l-1.083-1.069l-2.19-1.12l-1.045-0.828l-0.417-1.175l0.4-1.35h-0.4
		l-0.826,1.227l-2.381,2.219v1.027l2.816,0.869L228.304,133.711z M262.867,40.609l-0.03,0.396l0.285-0.198l0.56,0.522l0.324-0.193
		l0.49-0.037l0.467-0.417l-0.268-0.739l-0.074-0.635l-0.286-0.467l-1.014,0.268l-0.847,0.472l0.2,0.629L262.867,40.609z
		 M102.337,129.431l0.292,0.162l0.305,0.398l0.342,0.559l0.56-0.342l0.578-1.394l-0.087-1.461l-0.796-0.988l-0.504-0.33
		l-0.491,0.417l-0.721,1.026l-0.162,0.977l0.323,0.634L102.337,129.431z M181.774,150.709l1.028,0.131l1.61,0.106l0.578,0.198
		l1.027,0.578l1.747,0.723l1.971,0.199l1.91-0.361l1.611-1.051l-0.436-0.392l0.597-1.232l0.704,0.218l0.453,0.814l-0.129,0.592
		l1.753,0.709l2.109,0.087l1.791-0.628l0.828-1.48l-0.615-1.809l-1.643-0.666l-2.022-0.416l-1.71-1.083l-0.274-0.286l-0.615-0.996
		l0.255-0.322l0.074-0.199l-0.329-0.777l-0.486,0.672l-0.652,0.392l-1.641,0.691l-1.407,1.131l-0.397,0.169l-0.429-0.095
		l-0.872-0.36l-0.54-0.019l-0.958,0.305l-0.721,0.491l-1.132,0.99l-0.597,0.328l-1.461,0.523l-0.741,0.466l-0.919,0.92l0.018,0.492
		L181.774,150.709z M120.48,142.785l0.666,1.014l1.082-0.995l1.269-1.661l0.703-1.877l-0.653-1.644l-0.828-0.789l-1.424,0.21
		l-1.411,0.836l-0.74,1.062l-0.019,1.754l0.56,1.17L120.48,142.785z M155.279,143.295l0.217-0.056l0.286,0.124l1.033,0.653
		l3.389,1.102l0.76-1.282l0.939,0.249l0.995,0.778l0.921,0.255l0.447-0.456l0.107-0.613l0.038-0.63l0.217-0.474l0.56-0.286
		l0.473,0.039l0.504,0.161l0.684,0.086l1.784-1.205l1.431-2.637l0.392-2.469l-1.367-0.778l-0.112-0.343l-0.249-0.635l-0.056-0.379
		l-1.044,0.741l-2.202,3.252l0.361,0.628l0.087,0.684l-0.143,0.708l-0.306,0.647h-0.36l0.038-1.729l-0.759-0.019l-1.735,1.314
		l-2.09-0.015l-0.312,0.23l-0.305,0.274l-1.517,0.684l-0.597,0.144l-2.202-0.485l-0.18,0.163l-0.218,0.398l-0.18,0.465l-0.012,0.359
		l0.144,0.35H155.279z M342.162,83.188l0.541-2.817l0.18-1.928l0.256-1.282l0.049-0.722l-0.068-0.87l-0.18-0.503l-0.272-0.417
		l-0.275-0.665l-0.573-1.026l-0.073-0.599l0.466-0.795l0.075-0.486l-0.256-2.382l0.361-6.015l-1.293-4.365l-0.474-0.74l-0.977-0.199
		l-1.35-0.56l-1.262-0.722l-2.456,0.684l-0.958,0.18l-0.92-0.248l-0.417-0.485l-0.579-1.3l-0.522-0.435l-1.387-0.254l-0.322-0.2
		l-0.33-0.772l-0.287-2.91l0.056-1.1l0.628-0.686l0.76-0.578l0.417-0.864l-0.272-0.796l-1.37-1.841l-0.255-1.101l0.294-0.97
		l1.136-1.611l0.375-0.92l0.253-5.848l0.381-1.928l0.143-1.193l-0.304-1.337l-0.921-2.506L329.504,27l-2.992,0.776l-1.318,0.107
		l-0.255,0.596l-1.065,4.136l-1.262,2.762l-1.535,2.563l0.541-0.237l0.472-0.38l0.342-0.503l0.219-0.617h0.397l-0.237,1.213
		l-0.379,0.921l-0.453,0.76l-0.505,0.664l-2.468,2.346l-0.381,0.559l-0.13,1.231l-0.559,1.835l-0.126,0.958l-0.219,0.217
		l-0.416-0.105l-0.229-0.398l0.592-1.119l0.359-1.337l0.367-0.598l-1.61,1.375l-3.191,4.062l-2.113,1.699l-1.737,0.465l-0.267,0.162
		l-0.286,0.455l-0.653,0.341l-0.739,0.237l-0.543,0.067l-0.633,0.493l-1.512,2.126l-2.02,0.797l-0.958,0.72l-1.556,1.681
		l-0.523,0.938l-0.9,2.525l-0.381,0.524l-1.243,0.198l-1.28,0.417l-1.158,0.18l-0.901-0.36l-0.361-0.852l0.38-0.79l0.647-0.89
		l0.509-1.044l-1.013,0.378l-0.902,1.064l-0.646,1.281l-0.274,1.081l-0.398,1.102l-0.758,1.032l-0.362,0.797l0.724,0.38
		l-0.646,0.553l-0.561,1.051l-0.797,2.419l-0.396-0.455l-0.267,0.796l-0.344,0.486l-0.343-0.038l-0.254-0.789h-0.36l-1.879,2.593
		l-1.171,1.014l-0.615-0.522l-0.665,0.417l-0.366,0.647l-0.032,0.777l0.268,0.809l-0.881-0.031l-0.524,0.212l-1.772,1.915
		l-0.324,0.56l0.162,0.522l1.176,2.184l0.455,1.43l-0.313,1.132l-1.622,0.51l0.758-1.176l0.257-0.864l-0.313-0.871l-0.863-1.281
		l-0.957-0.144l-1.121,1.033l-6.188,9.404v-0.036l-0.055-0.093l-0.126-0.125l-0.093-0.057l-0.051-0.054l0.144-0.163l-0.036-0.02
		l-0.057-0.049h-0.019v0.039l-0.267-0.075l-0.019-0.076l-0.02-0.086l-0.036-0.02l-0.069,0.106v0.019l-0.147-0.038l-0.001,0h-0.001
		l-0.124-0.031l0.418-0.149h0.234l0.014-0.012v-0.037l-0.014-0.019h-0.348l-0.105,0.019h-0.018l0.305-0.162l0.073-0.018h0.106
		l0.019-0.019v-0.037l-0.019-0.019v-0.019h-0.051l-0.073,0.019l-0.181,0.056l-0.21,0.048l0.372-0.284l0.092-0.018l0.037-0.019
		v-0.039l0.014-0.012h-0.014l-0.037-0.037l-0.216,0.069l-0.164,0.092l-0.159,0.106l-0.15,0.143l-0.107,0.13l-0.056,0.019
		l0.673-0.652l0.05-0.02l0.056-0.031l0.018-0.018l-0.018-0.039v-0.018h-0.039l-0.085,0.018l-0.113,0.057l-0.18,0.124l-0.163,0.143
		l0.257-0.435l0.017-0.013v-0.018l0.021-0.039l-0.021,0.021v-0.021l-0.036-0.018l-0.057,0.018l-0.087,0.087l-0.16,0.18l-0.093,0.162
		l-0.07,0.131l-0.037,0.049l0.107-0.429l0.054-0.055l0.039-0.069l-0.021-0.036l-0.036-0.021h-0.056l-0.037,0.057l-0.087,0.162
		l-0.076,0.162l-0.036,0.161l-0.013,0.106l-0.038-0.486v0.018l-0.018-0.018l-0.038-0.019l-0.018,0.037l-0.019,0.219v0.157
		l-0.087-0.25l-0.018,0.018v-0.018h-0.037l-0.039,0.018v0.057l-0.105,0.069h-0.019l-0.036,0.037v0.018l-0.071,0.124l-0.036,0.02
		v0.037l0.02,0.037h0.124l0.236,0.057h-0.131l-0.162,0.012l-0.143,0.056l-0.057,0.038v0.056l0.038,0.019l0.074-0.038l0.467-0.055
		l-0.019,0.018l-0.199,0.056l-0.197,0.105l-0.212,0.143l-0.056,0.076v0.036l0.056,0.018l0.031-0.018l0.055-0.056l0.504-0.236
		l-0.162,0.112l-0.181,0.144l-0.143,0.16l-0.088,0.144L268.9,90.03v0.056l0.02,0.013l0.048,0.019l0.038-0.031l0.018-0.056
		l0.362-0.324l-0.039,0.051l-0.087,0.15l-0.057,0.18l-0.037,0.124v0.144l0.037,0.018l0.038-0.018l0.019-0.038l0.02-0.087
		l0.285-0.435l-0.056,0.126l-0.031,0.111l-0.037,0.162v0.18l-0.018,0.019l0.018,0.039l0.019-0.019h0.018l0.019-0.038v-0.037
		l0.268-0.579l-0.074,0.217l-0.018,0.237v0.144l0.036,0.037h0.038l0.038-0.019v-0.056l-0.02-0.105l0.143-0.522l0.036-0.112
		l-0.017,0.056l-0.02,0.056v0.069l-0.037,0.312l0.037,0.142l0.036,0.125h0.037l0.039-0.02v-0.031l-0.039-0.111l0.058-0.522
		l0.012,0.036l0.018,0.268h-0.018v0.057l0.036,0.018h0.038l0.598,0.342l0.087,0.075l0.038,0.012l0.056,0.018h0.037l0.037-0.03
		l0.069-0.075l-0.256,0.454l-6.245,5.468l-1.512,1.784l-0.019,0.018l-0.019-0.018l-0.019-0.069l-0.017-0.075v-0.216l0.017-0.125
		l0.088-0.18h0.018l0.038-0.018h0.056l0.125-0.236l0.075-0.18h0.036l0.087,0.037v0.019l-0.123,0.323h-0.038l-0.019,0.019v0.019
		h0.073v-0.038l0.144-0.36l0.057-0.198l0.03-0.182v-0.237l-0.018-0.341V96l0.018-0.031v-0.019h-0.03l-0.057,0.032V96l0.057,0.018
		l0.012,0.342v0.237l-0.03,0.18l-0.038,0.144l-0.019,0.018l-0.105-0.049l0.013-0.074l0.038-0.201v-0.417l-0.051-0.248l-0.056-0.13
		l-0.056-0.124l0.092-0.075h0.032l0.219,0.168l0.129,0.068l0.087,0.093l0.037,0.019v-0.019l-0.124-0.111l-0.11-0.088l-0.237-0.143
		h-0.032l-0.166,0.087l-0.087-0.143l0.073-0.038l-0.017-0.018l-0.132-0.162l-0.286-0.237l-0.163-0.105l-0.303-0.123l-0.257-0.077
		l-0.291-0.037l-0.323,0.018l-0.038,0.236l0.019,0.019l0.02-0.037h0.578l0.18,0.057l0.219,0.067l0.105,0.074l0.149,0.087
		l0.181,0.162l0.142,0.149v0.069l0.069-0.051l0.093,0.143l-0.056,0.038v0.031l0.056,0.13l0.069,0.161l0.018,0.267l-0.018,0.257
		l-0.069,0.255l-0.075,0.198l-0.105,0.193l-0.036-0.013l-0.019,0.013l0.11,0.075l-0.148,0.218l-0.019,0.018l-0.05,0.019l-0.02,0.069
		v0.236l0.02,0.144l0.02,0.036l0.087-0.018l0.019,0.018v0.038l-0.561,0.268l-0.057-0.031l-0.01-0.038l0.01-0.019l0.096-0.074
		l0.019-0.039v-0.011l-0.094-0.038l-0.03-0.039l-0.474-0.9l-0.105-0.181h-0.038l-0.074,0.038h-0.038l-0.011-0.075l0.011-0.018
		l0.038-0.039h0.235l0.145,0.039l0.094,0.037l0.197,0.105l0.163,0.149l0.05,0.032l0.038-0.019l0.017-0.031l-0.017-0.057l-0.07-0.093
		l-0.16-0.087l-0.2-0.093l-0.168-0.05h-0.267l-0.075-0.02v-0.018l0.057-0.036l0.144-0.02h0.292l0.197,0.039l0.163,0.055l0.143,0.106
		h0.075l0.03-0.021v-0.048l-0.012-0.038l-0.198-0.112l-0.171-0.03l-0.21-0.039l-0.31,0.02l-0.163,0.019l-0.067,0.012l-0.02-0.031
		l0.02-0.038l0.105-0.056l0.197-0.075l0.201-0.01h0.087l0.15,0.01l0.247,0.075l0.163,0.038l0.037-0.018l0.019-0.038l-0.019-0.037
		l-0.057-0.03l-0.088-0.038l-0.143-0.039h-0.396l-0.181,0.039l-0.218,0.048l-0.143,0.075l-0.038-0.018l-0.019-0.019l0.019-0.039
		l0.198-0.141l0.2-0.069l0.143-0.057h0.234l0.231,0.039l0.11,0.018l0.107,0.019h0.037l0.019-0.037l-0.019-0.057l-0.057-0.018
		l-0.18-0.057h-0.25l-0.254,0.018l-0.124,0.039l-0.218,0.093l-0.219,0.162h-0.037l-0.037-0.039l0.019-0.036l0.199-0.18l0.254-0.162
		l0.256-0.106l0.161-0.038h0.286l0.02-0.037v-0.038l-0.02-0.037h-0.247l-0.273,0.075L261.804,96l-0.23,0.167l-0.188,0.193h-0.031
		l-0.037-0.031l0.037-0.057l0.161-0.235l0.125-0.125l0.163-0.093l0.217-0.105l0.199-0.038l0.073-0.037v-0.069l-0.036-0.018
		l-0.18,0.018l-0.162,0.069l-0.274,0.18l-0.181,0.162l-0.143,0.216h-0.037l-0.037-0.031l0.02-0.036l0.037-0.113l0.073-0.143
		l0.106-0.161l0.124-0.124l0.093-0.093l0.088-0.057l0.02-0.049l-0.02-0.038l-0.05,0.019l-0.15,0.068l-0.18,0.2l-0.087,0.111
		l-0.144,0.267l-0.037,0.038v-0.125l0.106-0.323l0.093-0.129l0.068-0.069v-0.037l-0.019-0.019l-0.068,0.019l-0.124,0.18
		l-0.075,0.162l-0.075,0.143l-0.017,0.038l-0.014,0.018l-0.02-0.018v-0.038l0.033-0.416l-0.014-0.013l-0.037,0.013l-0.037,0.416
		h-0.018l-0.125-0.05l-0.182-0.112l-0.074-0.019l-0.036,0.056l0.056,0.056l0.217,0.068l0.124,0.074v0.038l0.021,0.013h-0.058
		l-0.067-0.013l-0.182-0.038l-0.161-0.019h-0.13l-0.03,0.057l0.01,0.031l0.132-0.018l0.18,0.036l0.219,0.057l0.123,0.037l0.02,0.039
		v0.048h-0.055l-0.125-0.048h-0.182l-0.198,0.018l-0.323,0.105l-0.02,0.057l0.02,0.031h0.03l0.074-0.031l0.162-0.075l0.217-0.018
		h0.22l0.143,0.036l0.074,0.021l0.014,0.055v0.03h-0.145l-0.199,0.02l-0.218,0.054l-0.249,0.126l-0.198,0.131l-0.075,0.067v0.074
		l0.018,0.039h0.057l0.056-0.057l0.162-0.162l0.124-0.056l0.217-0.105l0.22-0.057l0.143-0.018h0.124l0.018,0.018l0.02,0.039v0.038
		h-0.037l-0.087,0.01l-0.218,0.039l-0.162,0.093l-0.216,0.144l-0.201,0.162l-0.123,0.124l-0.057,0.112v0.037l0.037,0.031
		l0.068-0.013l0.039-0.055l0.129-0.181l0.144-0.124l0.088-0.093l0.148-0.087l0.269-0.113l0.179-0.037h0.037l0.02,0.019v0.056
		l-0.02,0.018l-0.198,0.069l-0.105,0.057l-0.132,0.093l-0.197,0.198l-0.145,0.193l-0.105,0.274l0.018,0.075l0.03,0.018h0.057
		l0.037-0.093l0.057-0.162l0.068-0.163l0.161-0.198l0.113-0.112l0.143-0.105l0.198-0.087l0.087-0.019l0.02,0.031l-0.02,0.037
		l-0.105,0.074l-0.125,0.105l-0.16,0.144l-0.15,0.199l-0.106,0.18l-0.072,0.291l0.018,0.056h0.055l0.038-0.037l0.019-0.112
		l0.03-0.18l0.113-0.218l0.145-0.193l0.216-0.18l0.087-0.038l0.039-0.02l0.037,0.02l-0.02,0.038l-0.037,0.048l-0.144,0.131
		l-0.124,0.25l-0.112,0.254l-0.051,0.287l0.021,0.075h0.03l0.058-0.021l0.018-0.162l0.037-0.198l0.051-0.199l0.147-0.274
		l0.126-0.144h0.055l0.019,0.021v0.055l-0.037,0.056l-0.123,0.193l-0.076,0.218l-0.019,0.236l0.019,0.237l0.02,0.018h0.067
		l0.02-0.018l-0.02-0.144v-0.311l0.02-0.124l0.074-0.163l0.087-0.143l0.094-0.074l0.038,0.105l-0.076,0.039v0.036l0.485,0.902
		l0.111,0.2v0.087h0.076l0.067-0.013l0.02,0.031v0.093l-0.037,0.018l-0.361,0.181h0.02l-0.037,0.02l-0.052,0.017l0.033-0.017h-0.02
		l-0.105,0.048l-0.057,0.039h-0.02l-0.03-0.057l-0.074-0.105l-0.094-0.087l-0.031-0.057l-0.037,0.018l-0.055,0.057h-0.02
		l-0.05-0.019l-0.131-0.075h-0.036l-0.014-0.019v-0.162l-0.02,0.018v0.037h-0.197l-0.256-0.055l-0.217-0.075l-0.126-0.051
		l-0.255-0.18l-0.087-0.093l-0.111-0.125l-0.068-0.111l0.056-0.013V97.63h-0.02l-0.092,0.05l-0.019-0.019l-0.069-0.105v-0.038
		l0.107-0.037l-0.019-0.019l-0.019,0.019l-0.02-0.031l-0.03-0.075l-0.02-0.075l-0.037-0.305l-0.02-0.162l0.02-0.105l0.019-0.15
		l0.05-0.2l0.093-0.229l0.162-0.2l0.037-0.056l-0.019-0.055l-0.037-0.02v-0.031l0.018-0.038l0.162-0.13l0.124-0.105l0.093-0.018
		l0.144-0.038l0.056-0.049l0.068-0.075l0.149-0.105l0.198-0.075l0.108-0.018l0.072-0.069l0.033-0.057l0.054-0.018l0.113-0.018
		l0.05-0.021l0.02-0.142h-0.039l-0.124-0.038l-0.256-0.018l-0.191,0.018l-0.199,0.075l-0.181,0.105l-0.18,0.162l-0.112,0.131
		l-0.068,0.18l-0.036,0.069l-0.164,0.217l-0.16,0.198l-0.133,0.255l-0.066,0.181l-0.074,0.212l-0.019,0.273v0.218l0.019,0.18
		l0.056,0.144l0.05,0.199l0.035,0.018l0.02-0.018h0.036l0.038,0.106v0.038l-0.019,0.018l-0.143,0.056l-0.018,0.019l-0.019,0.541
		l0.019,0.033h0.018v-0.555l0.019-0.018l0.03-0.019l0.074-0.038l0.076,0.087l0.03,0.056l-0.018,0.019v0.018h0.018l0.02,0.021
		l0.18,0.18l0.149,0.124l0.162,0.093l0.18,0.087l0.124,0.038l0.057,0.036l0.012,0.02l-0.012,0.067v0.019h-0.037l-0.256-0.085
		l-0.142-0.075l-0.306-0.2l-0.092-0.087l-0.019-0.037v-0.02l-0.088,0.039v0.018h0.068l0.13,0.105l0.287,0.2l0.145,0.093l0.273,0.086
		l0.124,0.038l0.143,0.038h0.15v0.012l0.011,0.018v-0.018l0.02-0.03v-0.039h-0.02l-0.011,0.039l-0.113-0.02l-0.143-0.019
		l-0.072-0.036v-0.057l0.018-0.031l0.038-0.038l0.123,0.038l0.13,0.019h0.25l0.111,0.03l0.069,0.056l0.074,0.087l0.018,0.037
		l0.019,0.075l-0.019,0.087l-1.935,0.579l-1.026,0.181l-0.995,0.472l-3.227,3.048l-6.463,4.403l0.796,1.033l-0.292,0.846
		l-0.847,0.579l-0.864,0.18l-0.112-0.075l-1.784-0.846l-0.359,0.36l-0.274,0.616l-0.287,0.429l-2.312,1.554l-0.541,0.616
		l-0.163,1.026l0.473,0.466l0.41,0.273l-0.304,0.468l0.273,0.833l0.162,0.808l0.249,0.653l0.511,0.379v0.398l-1.09,0.504
		l-0.321,0.901l-0.183,0.883l-0.615,0.379l-1.008,0.218l-0.218,0.504l0.455,0.577l0.97,0.418l-2.201,4.44l-0.305,0.199l-0.523,0.883
		l-0.18,0.236l-0.505-0.037l-1.262-0.417l-0.672-0.038l0.883,0.741l0.349,0.18l-1.395,0.217l-1.461-1.081l-1.136-1.748l-0.468-1.773
		h-0.397l-0.759,1.014l-0.201,0.558l0.164,0.667l-0.486-0.436l-0.199-0.541l-0.093-0.397l-0.609,0.689l-0.723,0.486l-0.707,0.199
		v0.398l1.373,0.324l3.445,2.307l1.573,0.33l1.567,0.067l1.102,0.542l0.18,1.698h-0.36l-0.577-0.685l-0.827-0.378l-0.939-0.292
		l-0.865-0.411l0.2,0.778l0.988,1.1l0.379,0.81l-0.863-0.162l-1.444-0.666l-0.92-0.093v0.472l0.267,0.069l0.541,0.38l-0.938,0.484
		l-0.198,0.74l0.329,1.629l-2.333,4.621l-1.102,1.549l-2.182,1.681l-0.43,0.72l-2.401-0.976l-1.101-0.049l-0.491,0.789l-0.521,0.094
		l-3.123,2.307l-3.863,1.102l-0.598,0.492l-0.408,0.95l-0.959,1.014l-1.068,0.847l-0.771,0.49l-0.616,0.182l-1.785,0.248
		l-1.556,0.74l-1.243,0.235l-1.157,0.599l-3.72,0.615l-3.607,1.946l-0.646,0.542l-1.481,0.181l-7.153-0.057l-0.56-0.143l-0.59-0.236
		l-0.579-0.105l-0.492,0.255l-0.392,0.286l-1.808,0.864l-0.467-0.106l-0.561-0.286l-0.596-0.148l-1.008,0.522l-0.652,0.111h-0.684
		l-0.467-0.093l-0.417-0.379l-0.759-1.152l-0.255-0.254l-0.541-0.143l-0.609-0.36l-1.089-0.815l-0.665,0.361l-0.865,0.056
		l-0.852-0.198l-0.609-0.436l-0.795-0.903l-0.523-0.342h-0.522l-7.526,1.537l-3.253-0.181l-0.485-0.342l-0.814-1.336l-0.94-1.064
		l-1.424-1.157l-1.549-0.683l-1.336,0.284l0.18,0.815l0.018,0.722l0.231,0.61l0.814,0.473l-1.008,0.236l-1.101-0.617l-1.212-0.454
		l-2.346,1.032l-1.082-0.523l-1.716-1.43l-0.124-0.143l-0.162-0.248l-0.217-0.293l-0.311-0.181h-0.342l-0.106,0.273l-0.075,0.361
		l-0.268,0.23l-2.095,0.814l-0.56,0.105l-5.02-0.43l-0.429-0.13l-0.399-0.192l-0.503-0.149l-0.672-0.019l-0.647,0.182l-1.262,0.614
		l-0.74,0.124l-1.282-0.181l-2.399-0.702l-1.338-0.037l-0.522,0.235l-0.18,0.324l-0.255,0.18l-0.647-0.249l-2.115-2.903l-0.939-0.89
		l-1.064-0.379l-1.138,0.67l-0.162,0.759l-0.019,1.17l-0.18,1.083l-0.647,0.49l-0.796,0.236l-1.026,0.573l-1.032,0.776l-0.778,0.798
		l-0.883,0.683l-1.785,0.778l-0.324,0.721l-0.398,0.686l-0.958,0.634l-1.138,0.484l-0.97,0.181l-0.834,0.275l-0.777,0.645
		l-0.721,0.74l-0.665,0.578l-0.796,0.237h-1.86l-1.007,0.16l-2.239,1.389l-0.977,0.341l-1.063,0.075l-1.045-0.075l-1.032,0.056
		l-0.902,0.437l-0.598-0.343l-0.572,0.343l-1.051-0.273l-2.47,0.435l-0.51,0.037l-1.822-0.883l-0.722-0.673l-0.417-0.124
		l-0.392,0.106l-3.358-0.179l-1.262,0.179l0.106,0.691l0.323,0.522l-0.143,0.268h-0.448l-0.541-0.343l-1.014-0.994l-0.522-0.306
		l-0.685-0.217l-2.872-0.069l-1.387-0.36l-0.597-1.138l-0.125-0.634l-0.559-1.301l-0.131-0.685l0.074-2.164l-0.074-0.685
		l-0.703-3.178l-0.086-1.48l0.609-4.1l-0.18-1.387l-1.226-1.841l-1.082,0.847l-1.138,2.742l0.237,0.144l-0.075,0.292l-0.305,0.306
		l-0.504,0.142l-0.529-0.067l-0.286-0.148l-0.379-0.667l-0.596-1.983l-0.398-0.797l-0.553,2.905l-0.853,0.907l-0.827-0.527
		l-0.379-2.253v-3.7l-0.255-1.264l-1.263-1.84l-0.504-1.082l-1.176,1.312l1.064,2.296l-0.068,2.83l-1.251,1.827L60,144.557
		l0.342,2.471l-0.018,1.641l-0.131,4.117l0.33,1.661l0.883,1.518l3.34,4.329l3.066,3.975l3.066,3.966l3.072,3.97l3.066,3.956
		l3.066,3.967l3.072,3.956l3.066,3.95l3.066,3.975l3.073,3.949l3.067,3.955l3.066,3.955l3.072,3.951l3.048,3.937l3.084,3.949
		l3.054,3.938l3.085,3.948l3.142,4.044l1.194,1.031l1.443,0.468l9.454,1.244l8.179,1.1l8.172,1.09l8.179,1.082l8.18,1.083
		l8.172,1.081l8.179,1.083l8.173,1.082l8.178,1.082l8.192,1.083l8.178,1.1l8.18,1.089l8.19,1.081l8.16,1.082l8.173,1.083
		l8.199,1.081l8.178,1.084l8.048,1.062l0.885-0.161l3.897-5.069l0.647-9.261l-0.38-9.261v-0.013l0.199-1.879l1.841-6.12l5.599-9.784
		l1.301-3.899l1.225-6.35l0.673-2.134l1.079-1.643l0.016-0.018l2.206-2.4l0.808-1.225l1.935-7.926l0.543-1.081l2.741-4.044
		l0.25-0.845l-0.181-4.857l-0.267-1.841l-0.94-1.405l-2.147-1.282l-0.974-0.89l-0.525-1.149l0.232-0.94l2.529-0.472l2.508-0.958
		l1.138-0.63l1.736-0.938l1.604-0.648l1.679-0.311l1.946,0.038l1.917,0.323l0.9-0.019l0.972-0.36l1.05-0.18l1.536,1.193l1.096,0.124
		l6.841-2.799l3.739-0.903l0.653-1.024l-2.189-3.918l-0.705-2.725l-0.919-2.296l-1.766-0.739l-3.304,1.337l-0.978-0.055l-3.7-0.811
		l-0.702-0.342l-0.093-0.977l0.471-1.119l2.291-4.062l0.378-0.939l0.198-3.104l-0.123-0.54l-0.453-0.579l-1.17-0.796l-0.38-0.447
		l-0.18-0.978l0.125-3.483l-0.74-2.706l-0.069-1.355l0.59-0.901l0.835-0.882l0.361-2.165l1.641-1.519l-0.199-1.244l-1.174-2.656
		l-0.126-1.176l0.255-2.4v-1.207l-0.49-4.963l0.614-1.984l1.786-2.256l1.915-1.768l2.06-1.298l2.259-0.599l2.524,0.399l1.604,1.008
		l0.664,1.896l0.729,4.224l-1.413-1.008l-0.757-0.399l-0.827-0.198l-1.032,0.305l-0.181,0.814l0.416,0.953l2.183,1.99l1.735,4.44
		l1.805,1.443l0.938,0.124l1.244-0.038l1.118-0.323l0.524-0.666l0.36-1.101l1.263-1.536l0.957-2.402l0.902-0.398l2.203-0.286
		l1.049-0.503l2.272-2.221l1.642-1.175l0.328-0.654l0.325-3.694l0.577-0.653l3.211-0.344l-1.244-5.105L342.162,83.188z
		 M270.324,89.395h0.036l-0.072,0.02L270.324,89.395z M269.08,89.557l0.124-0.087l0.164-0.093h0.018L269.08,89.557z M270.107,88.966
		l0.181-0.162l0.18-0.111l0.075-0.019l-0.599,0.521l0.076-0.105L270.107,88.966z M269.888,88.985l0.132-0.199l0.087-0.131
		l0.111-0.124l0.105-0.056l-0.504,0.672L269.888,88.985z M269.764,88.837l0.076-0.182l0.03-0.019l-0.125,0.33L269.764,88.837z
		 M269.043,89.993v-0.02l0.088-0.142l0.129-0.126l0.163-0.162l0.142-0.129L269.043,89.993z M269.28,90.21v-0.111l0.067-0.144
		l0.057-0.124l0.124-0.18l0.144-0.126L269.28,90.21z M269.497,90.315l0.013-0.142l0.037-0.144l0.057-0.162l0.104-0.199l0.038-0.057
		L269.497,90.315z M269.746,89.525l-0.019,0.031l-0.017,0.021L269.746,89.525l0.051-0.063l-0.013,0.027L269.746,89.525z
		 M269.857,89.687l-0.093,0.468v-0.144l0.037-0.144L269.857,89.687v-0.036l0.009-0.018L269.857,89.687z M270.05,89.613l-0.012,0.019
		l0.012-0.075V89.613z M270.107,89.196l0.143-0.105l0.148-0.094l0.163-0.068h0.019L270.107,89.196z M337.179,81.384l-1.735,1.244
		l-0.975,0.417l-0.934-0.273l-0.36-0.865l0.391-0.995l1.232-1.841l-0.198-0.342l-0.522-0.324l-0.237-0.36l0.63-0.504l1.087-0.436
		l0.561-0.087l0.429,0.106l0.322,0.721l0.273,1.3l0.105,1.355L337.179,81.384z"/>
</g>
</svg>
